Maname-Italic.ufo
<glyph name="plus" format="1">
  <advance width="492"/>
  <unicode hex="002B"/>
  <outline>
    <contour>
      <point x="214" y="19" type="curve"/>
      <point x="290" y="22" type="line"/>
      <point x="288" y="76"/>
      <point x="287" y="145"/>
      <point x="287" y="218" type="curve" smooth="yes"/>
      <point x="287" y="292"/>
      <point x="288" y="369"/>
      <point x="290" y="437" type="curve"/>
      <point x="214" y="434" type="line"/>
      <point x="216" y="381"/>
      <point x="217" y="317"/>
      <point x="217" y="253" type="curve" smooth="yes"/>
      <point x="217" y="170"/>
      <point x="216" y="86"/>
    </contour>
    <contour>
      <point x="59" y="190" type="line"/>
      <point x="110" y="192"/>
      <point x="173" y="193"/>
      <point x="241" y="193" type="curve" smooth="yes"/>
      <point x="309" y="193"/>
      <point x="381" y="192"/>
      <point x="450" y="190" type="curve"/>
      <point x="457" y="265" type="line"/>
      <point x="397" y="263"/>
      <point x="327" y="262"/>
      <point x="258" y="262" type="curve" smooth="yes"/>
      <point x="189" y="262"/>
      <point x="120" y="263"/>
      <point x="60" y="265" type="curve"/>
    </contour>
  </outline>
</glyph>
<glyph name="two" format="1">
  <advance width="494"/>
  <unicode hex="0032"/>
  <outline>
    <contour>
      <point x="44" y="0" type="line"/>
      <point x="439" y="0" type="line"/>
      <point x="464" y="121" type="line"/>
      <point x="416" y="121" type="line"/>
      <point x="407" y="99"/>
      <point x="388" y="57"/>
      <point x="329" y="57" type="curve" smooth="yes"/>
      <point x="126" y="57" type="line"/>
      <point x="121" y="46" type="line"/>
      <point x="177" y="73"/>
      <point x="477" y="238"/>
      <point x="483" y="422" type="curve" smooth="yes"/>
      <point x="483" y="498"/>
      <point x="413" y="533"/>
      <point x="327" y="533" type="curve" smooth="yes"/>
      <point x="266" y="533"/>
      <point x="198" y="510"/>
      <point x="152" y="486" type="curve"/>
      <point x="152" y="486"/>
      <point x="153" y="485"/>
      <point x="153" y="483" type="curve"/>
      <point x="149" y="473"/>
      <point x="145" y="441"/>
      <point x="143" y="397" type="curve"/>
      <point x="177" y="432"/>
      <point x="242" y="492"/>
      <point x="315" y="492" type="curve" smooth="yes"/>
      <point x="375" y="492"/>
      <point x="401" y="461"/>
      <point x="401" y="408" type="curve" smooth="yes"/>
      <point x="401" y="336"/>
      <point x="352" y="286"/>
      <point x="287" y="218" type="curve"/>
      <point x="234" y="167"/>
      <point x="106" y="78"/>
      <point x="40" y="44" type="curve"/>
    </contour>
  </outline>
</glyph>
<glyph name="C" format="1">
  <advance width="568"/>
  <unicode hex="0043"/>
  <outline>
    <contour>
      <point x="265" y="-17" type="curve" smooth="yes"/>
      <point x="373" y="-17"/>
      <point x="460" y="17"/>
      <point x="522" y="84" type="curve"/>
      <point x="496" y="116" type="line"/>
      <point x="451" y="80"/>
      <point x="392" y="50"/>
      <point x="316" y="50" type="curve" smooth="yes"/>
      <point x="190" y="50"/>
      <point x="126" y="119"/>
      <point x="126" y="232" type="curve" smooth="yes"/>
      <point x="126" y="244"/>
      <point x="127" y="256"/>
      <point x="128" y="268" type="curve" smooth="yes"/>
      <point x="144" y="422"/>
      <point x="249" y="547"/>
      <point x="369" y="547" type="curve" smooth="yes"/>
      <point x="462" y="547"/>
      <point x="486" y="495"/>
      <point x="499" y="492" type="curve"/>
      <point x="508" y="504"/>
      <point x="511" y="515"/>
      <point x="511" y="525" type="curve" smooth="yes"/>
      <point x="511" y="558"/>
      <point x="466" y="572"/>
      <point x="438" y="572" type="curve" smooth="yes"/>
      <point x="428" y="572"/>
      <point x="420" y="570"/>
      <point x="417" y="567" type="curve"/>
      <point x="451" y="562"/>
      <point x="481" y="485"/>
      <point x="497" y="418" type="curve"/>
      <point x="542" y="416" type="line"/>
      <point x="553" y="448"/>
      <point x="568" y="546"/>
      <point x="571" y="585" type="curve"/>
      <point x="571" y="585"/>
      <point x="529" y="605"/>
      <point x="446" y="605" type="curve" smooth="yes"/>
      <point x="436" y="605"/>
      <point x="426" y="605"/>
      <point x="415" y="604" type="curve"/>
      <point x="174" y="591"/>
      <point x="42" y="407"/>
      <point x="42" y="197" type="curve" smooth="yes"/>
      <point x="42" y="58"/>
      <point x="120" y="-17"/>
    </contour>
  </outline>
</glyph>
<glyph name="T" format="1">
  <advance width="525"/>
  <unicode hex="0054"/>
  <outline>
    <contour>
      <point x="87" y="0" type="line"/>
      <point x="314" y="0" type="line"/>
      <point x="319" y="49" type="line"/>
      <point x="299" y="48"/>
      <point x="257" y="51"/>
      <point x="259" y="98" type="curve" smooth="yes"/>
      <point x="264" y="230"/>
      <point x="298" y="435"/>
      <point x="337" y="593" type="curve"/>
      <point x="337" y="593"/>
      <point x="241" y="575"/>
      <point x="193" y="577" type="curve"/>
      <point x="197" y="567" type="line"/>
      <point x="220" y="567"/>
      <point x="238" y="557"/>
      <point x="236" y="524" type="curve" smooth="yes"/>
      <point x="233" y="427"/>
      <point x="211" y="248"/>
      <point x="180" y="111" type="curve" smooth="yes"/>
      <point x="172" y="74"/>
      <point x="150" y="48"/>
      <point x="97" y="46" type="curve"/>
    </contour>
    <contour>
      <point x="519" y="454" type="line"/>
      <point x="519" y="458"/>
      <point x="543" y="587"/>
      <point x="547" y="609" type="curve"/>
      <point x="469" y="603"/>
      <point x="343" y="602"/>
      <point x="290" y="602" type="curve" smooth="yes"/>
      <point x="248" y="602" type="line" smooth="yes"/>
      <point x="180" y="602"/>
      <point x="127" y="604"/>
      <point x="59" y="608" type="curve"/>
      <point x="53" y="565"/>
      <point x="40" y="495"/>
      <point x="31" y="459" type="curve"/>
      <point x="89" y="467" type="line"/>
      <point x="103" y="495"/>
      <point x="116" y="551"/>
      <point x="148" y="578" type="curve"/>
      <point x="104" y="550" type="line"/>
      <point x="132" y="549"/>
      <point x="215" y="553"/>
      <point x="284" y="553" type="curve" smooth="yes"/>
      <point x="336" y="553" type="line" smooth="yes"/>
      <point x="387" y="553"/>
      <point x="442" y="551"/>
      <point x="489" y="534" type="curve"/>
      <point x="431" y="586" type="line"/>
      <point x="460" y="556"/>
      <point x="473" y="505"/>
      <point x="473" y="461" type="curve"/>
    </contour>
  </outline>
</glyph>
<glyph name="f" format="1">
  <advance width="330"/>
  <unicode hex="0066"/>
  <outline>
    <contour>
      <point x="56" y="-173" type="line"/>
      <point x="84" y="-167"/>
      <point x="103" y="-164"/>
      <point x="129" y="-161" type="curve"/>
      <point x="136" y="-23"/>
      <point x="181" y="227"/>
      <point x="210" y="369" type="curve"/>
      <point x="235" y="376"/>
      <point x="261" y="385"/>
      <point x="323" y="385" type="curve"/>
      <point x="327" y="396"/>
      <point x="331" y="414"/>
      <point x="331" y="429" type="curve"/>
      <point x="220" y="429" type="line"/>
      <point x="228" y="489"/>
      <point x="254" y="595"/>
      <point x="322" y="595" type="curve" smooth="yes"/>
      <point x="358" y="595"/>
      <point x="391" y="571"/>
      <point x="416" y="523" type="curve"/>
      <point x="425" y="551"/>
      <point x="435" y="600"/>
      <point x="442" y="646" type="curve"/>
      <point x="435" y="659" type="line"/>
      <point x="260" y="666"/>
      <point x="185" y="562"/>
      <point x="157" y="429" type="curve"/>
      <point x="57" y="429" type="line"/>
      <point x="52" y="416"/>
      <point x="48" y="394"/>
      <point x="49" y="384" type="curve"/>
      <point x="68" y="384"/>
      <point x="134" y="378"/>
      <point x="149" y="373" type="curve"/>
      <point x="130" y="196"/>
      <point x="56" y="-96"/>
      <point x="39" y="-158" type="curve"/>
    </contour>
  </outline>
</glyph>
<glyph name="k" format="1">
  <advance width="471"/>
  <unicode hex="006B"/>
  <outline>
    <contour>
      <point x="41" y="-14" type="curve"/>
      <point x="71" y="-10"/>
      <point x="103" y="-4"/>
      <point x="129" y="0" type="curve"/>
      <point x="127" y="157"/>
      <point x="170" y="345"/>
      <point x="204" y="518" type="curve" smooth="yes"/>
      <point x="216" y="578"/>
      <point x="229" y="617"/>
      <point x="237" y="648" type="curve"/>
      <point x="227" y="661" type="line"/>
      <point x="226" y="661"/>
      <point x="128" y="632"/>
      <point x="59" y="632" type="curve"/>
      <point x="53" y="623"/>
      <point x="50" y="609"/>
      <point x="50" y="601" type="curve"/>
      <point x="116" y="601"/>
      <point x="138" y="592"/>
      <point x="138" y="550" type="curve" smooth="yes"/>
      <point x="138" y="473"/>
      <point x="82" y="148"/>
      <point x="27" y="-4" type="curve"/>
      <point x="32" y="-7"/>
      <point x="36" y="-11"/>
    </contour>
    <contour>
      <point x="326" y="-14" type="curve" smooth="yes"/>
      <point x="374" y="-14"/>
      <point x="422" y="6"/>
      <point x="434" y="16" type="curve"/>
      <point x="437" y="23"/>
      <point x="438" y="28"/>
      <point x="438" y="33" type="curve" smooth="yes"/>
      <point x="438" y="39"/>
      <point x="437" y="43"/>
      <point x="434" y="46" type="curve"/>
      <point x="309" y="36"/>
      <point x="248" y="195"/>
      <point x="238" y="273" type="curve"/>
      <point x="223" y="252" type="line"/>
      <point x="308" y="295"/>
      <point x="417" y="372"/>
      <point x="457" y="450" type="curve"/>
      <point x="452" y="462" type="line"/>
      <point x="358" y="461" type="line"/>
      <point x="329" y="385"/>
      <point x="244" y="308"/>
      <point x="191" y="270" type="curve"/>
      <point x="204" y="176"/>
      <point x="233" y="-14"/>
    </contour>
    <contour>
      <point x="329" y="522" type="move" name="top"/>
    </contour>
  </outline>
</glyph>
<glyph name="gravecomb" format="1">
  <advance width="244"/>
  <unicode hex="0300"/>
  <outline>
    <contour>
      <point x="330" y="683" type="curve"/>
      <point x="362" y="727" type="line"/>
      <point x="312" y="766"/>
      <point x="243" y="818"/>
      <point x="205" y="863" type="curve"/>
      <point x="185" y="852"/>
      <point x="162" y="827"/>
      <point x="152" y="803" type="curve"/>
      <point x="191" y="768"/>
      <point x="280" y="709"/>
    </contour>
    <contour>
      <point x="229" y="672" type="move" name="_top"/>
    </contour>
  </outline>
</glyph>
<glyph name="alpha" format="1">
  <advance width="587"/>
  <unicode hex="03B1"/>
  <outline>
    <contour>
      <point x="28" y="153" type="curve" smooth="yes"/>
      <point x="28" y="50"/>
      <point x="90" y="-4"/>
      <point x="159" y="-4" type="curve" smooth="yes"/>
      <point x="331" y="-4"/>
      <point x="467" y="233"/>
      <point x="505" y="423" type="curve" smooth="yes"/>
      <point x="508" y="442"/>
      <point x="514" y="477"/>
      <point x="514" y="477" type="curve"/>
      <point x="440" y="465" type="line"/>
      <point x="440" y="465"/>
      <point x="422" y="296"/>
      <point x="382" y="213" type="curve" smooth="yes"/>
      <point x="345" y="137"/>
      <point x="267" y="75"/>
      <point x="193" y="75" type="curve" smooth="yes"/>
      <point x="113" y="75"/>
      <point x="74" y="121"/>
      <point x="74" y="211" type="curve" smooth="yes"/>
      <point x="74" y="326"/>
      <point x="163" y="388"/>
      <point x="243" y="388" type="curve" smooth="yes"/>
      <point x="315" y="388"/>
      <point x="361" y="341"/>
      <point x="368" y="272" type="curve" smooth="yes"/>
      <point x="376" y="190"/>
      <point x="361" y="139"/>
      <point x="361" y="82" type="curve" smooth="yes"/>
      <point x="361" y="16"/>
      <point x="396" y="-13"/>
      <point x="453" y="-13" type="curve" smooth="yes"/>
      <point x="496" y="-13"/>
      <point x="552" y="16"/>
      <point x="569" y="39" type="curve"/>
      <point x="559" y="60" type="line"/>
      <point x="545" y="53"/>
      <point x="517" y="50"/>
      <point x="505" y="50" type="curve" smooth="yes"/>
      <point x="445" y="50"/>
      <point x="407" y="87"/>
      <point x="407" y="169" type="curve" smooth="yes"/>
      <point x="407" y="248"/>
      <point x="406" y="466"/>
      <point x="252" y="466" type="curve" smooth="yes"/>
      <point x="120" y="466"/>
      <point x="28" y="315"/>
    </contour>
  </outline>
</glyph>
<glyph name="epsilon" format="1">
  <advance width="386"/>
  <unicode hex="03B5"/>
  <outline>
    <contour>
      <point x="33" y="132" type="curve" smooth="yes"/>
      <point x="32" y="67"/>
      <point x="83" y="-8"/>
      <point x="188" y="-8" type="curve" smooth="yes"/>
      <point x="252" y="-8"/>
      <point x="315" y="17"/>
      <point x="361" y="58" type="curve"/>
      <point x="350" y="95" type="line"/>
      <point x="305" y="71"/>
      <point x="252" y="57"/>
      <point x="212" y="57" type="curve" smooth="yes"/>
      <point x="117" y="57"/>
      <point x="87" y="101"/>
      <point x="87" y="143" type="curve" smooth="yes"/>
      <point x="87" y="180"/>
      <point x="132" y="203"/>
      <point x="144" y="203" type="curve"/>
      <point x="179" y="195"/>
      <point x="220" y="196"/>
      <point x="260" y="201" type="curve"/>
      <point x="268" y="233" type="line"/>
      <point x="179" y="233"/>
      <point x="115" y="263"/>
      <point x="115" y="325" type="curve" smooth="yes"/>
      <point x="115" y="397"/>
      <point x="177" y="424"/>
      <point x="265" y="424" type="curve" smooth="yes"/>
      <point x="290" y="424"/>
      <point x="325" y="421"/>
      <point x="353" y="413" type="curve"/>
      <point x="361" y="448" type="line"/>
      <point x="314" y="461"/>
      <point x="278" y="468"/>
      <point x="231" y="468" type="curve" smooth="yes"/>
      <point x="147" y="468"/>
      <point x="44" y="429"/>
      <point x="44" y="316" type="curve" smooth="yes"/>
      <point x="44" y="274"/>
      <point x="70" y="226"/>
      <point x="116" y="207" type="curve"/>
      <point x="112" y="206"/>
      <point x="112" y="231"/>
      <point x="109" y="231" type="curve" smooth="yes"/>
      <point x="75" y="231"/>
      <point x="35" y="187"/>
    </contour>
  </outline>
</glyph>
<glyph name="iota" format="1">
  <advance width="318"/>
  <unicode hex="03B9"/>
  <outline>
    <contour>
      <point x="72" y="446" type="curve"/>
      <point x="87" y="348"/>
      <point x="88" y="268"/>
      <point x="91" y="152" type="curve" smooth="yes"/>
      <point x="93" y="66"/>
      <point x="110" y="-22"/>
      <point x="202" y="-22" type="curve" smooth="yes"/>
      <point x="249" y="-22"/>
      <point x="283" y="11"/>
      <point x="299" y="27" type="curve"/>
      <point x="289" y="60" type="line"/>
      <point x="276" y="59"/>
      <point x="264" y="59"/>
      <point x="254" y="59" type="curve" smooth="yes"/>
      <point x="178" y="59"/>
      <point x="168" y="90"/>
      <point x="157" y="183" type="curve" smooth="yes"/>
      <point x="154" y="209"/>
      <point x="154" y="236"/>
      <point x="154" y="262" type="curve" smooth="yes"/>
      <point x="154" y="353"/>
      <point x="168" y="439"/>
      <point x="167" y="461" type="curve"/>
      <point x="153" y="461"/>
      <point x="96" y="448"/>
    </contour>
  </outline>
</glyph>
<glyph name="a-sinhala" format="1">
  <advance width="551"/>
  <unicode hex="0D85"/>
  <outline>
    <contour>
      <point x="275" y="-15" type="curve" smooth="yes"/>
      <point x="337" y="-15"/>
      <point x="428" y="-5"/>
      <point x="477" y="19" type="curve"/>
      <point x="480" y="25"/>
      <point x="481" y="33"/>
      <point x="482" y="42" type="curve" smooth="yes"/>
      <point x="484" y="58"/>
      <point x="482" y="76"/>
      <point x="478" y="89" type="curve"/>
      <point x="403" y="34"/>
      <point x="341" y="22"/>
      <point x="285" y="22" type="curve" smooth="yes"/>
      <point x="162" y="22"/>
      <point x="98" y="81"/>
      <point x="104" y="159" type="curve" smooth="yes"/>
      <point x="110" y="224"/>
      <point x="165" y="287"/>
      <point x="243" y="287" type="curve" smooth="yes"/>
      <point x="274" y="287"/>
      <point x="310" y="277"/>
      <point x="333" y="262" type="curve"/>
      <point x="346" y="272" type="line"/>
      <point x="348" y="280"/>
      <point x="350" y="291"/>
      <point x="351" y="299" type="curve" smooth="yes"/>
      <point x="359" y="395"/>
      <point x="298" y="465"/>
      <point x="209" y="465" type="curve" smooth="yes"/>
      <point x="143" y="465"/>
      <point x="104" y="429"/>
      <point x="101" y="388" type="curve" smooth="yes"/>
      <point x="97" y="353"/>
      <point x="120" y="336"/>
      <point x="137" y="335" type="curve"/>
      <point x="152" y="381"/>
      <point x="197" y="414"/>
      <point x="242" y="414" type="curve" smooth="yes"/>
      <point x="286" y="414"/>
      <point x="310" y="382"/>
      <point x="305" y="326" type="curve" smooth="yes"/>
      <point x="303" y="299"/>
      <point x="296" y="293"/>
      <point x="294" y="290" type="curve"/>
      <point x="329" y="320" type="line"/>
      <point x="304" y="323"/>
      <point x="285" y="325"/>
      <point x="264" y="325" type="curve" smooth="yes"/>
      <point x="132" y="325"/>
      <point x="34" y="259"/>
      <point x="25" y="157" type="curve" smooth="yes"/>
      <point x="15" y="40"/>
      <point x="131" y="-15"/>
    </contour>
    <contour>
      <point x="323" y="-227" type="curve"/>
      <point x="388" y="-227" type="line"/>
      <point x="421" y="229" type="line"/>
      <point x="398" y="214" type="line"/>
      <point x="483" y="221"/>
      <point x="534" y="269"/>
      <point x="540" y="332" type="curve" smooth="yes"/>
      <point x="545" y="397"/>
      <point x="497" y="418"/>
      <point x="449" y="461" type="curve"/>
      <point x="432" y="454" type="line"/>
      <point x="418" y="438"/>
      <point x="391" y="399"/>
      <point x="388" y="361" type="curve" smooth="yes"/>
      <point x="363" y="91"/>
      <point x="360" y="60"/>
    </contour>
    <contour>
      <point x="422" y="252" type="curve"/>
      <point x="428" y="325" type="line" smooth="yes"/>
      <point x="431" y="363"/>
      <point x="432" y="380"/>
      <point x="446" y="421" type="curve"/>
      <point x="483" y="389"/>
      <point x="493" y="362"/>
      <point x="490" y="327" type="curve" smooth="yes"/>
      <point x="487" y="285"/>
      <point x="463" y="261"/>
    </contour>
  </outline>
</glyph>
<glyph name="o-sinhala" format="1">
  <advance width="643"/>
  <unicode hex="0D94"/>
  <outline>
    <contour>
      <point x="406" y="-15" type="curve" smooth="yes"/>
      <point x="526" y="-15"/>
      <point x="598" y="130"/>
      <point x="611" y="275" type="curve" smooth="yes"/>
      <point x="626" y="449"/>
      <point x="541" y="614"/>
      <point x="331" y="614" type="curve" smooth="yes"/>
      <point x="266" y="614"/>
      <point x="208" y="603"/>
      <point x="170" y="588" type="curve"/>
      <point x="161" y="564"/>
      <point x="155" y="539"/>
      <point x="155" y="511" type="curve"/>
      <point x="195" y="528"/>
      <point x="266" y="547"/>
      <point x="328" y="547" type="curve" smooth="yes"/>
      <point x="478" y="547"/>
      <point x="584" y="461"/>
      <point x="569" y="291" type="curve" smooth="yes"/>
      <point x="560" y="184"/>
      <point x="506" y="72"/>
      <point x="405" y="72" type="curve" smooth="yes"/>
      <point x="353" y="72"/>
      <point x="315" y="102"/>
      <point x="319" y="149" type="curve" smooth="yes"/>
      <point x="319" y="154"/>
      <point x="320" y="159"/>
      <point x="321" y="164" type="curve"/>
      <point x="301" y="159" type="line"/>
      <point x="282" y="104"/>
      <point x="245" y="70"/>
      <point x="184" y="70" type="curve" smooth="yes"/>
      <point x="93" y="70"/>
      <point x="61" y="138"/>
      <point x="67" y="213" type="curve" smooth="yes"/>
      <point x="75" y="305"/>
      <point x="140" y="335"/>
      <point x="167" y="338" type="curve"/>
      <point x="161" y="366" type="line"/>
      <point x="161" y="363"/>
      <point x="132" y="177"/>
      <point x="319" y="177" type="curve" smooth="yes"/>
      <point x="417" y="177"/>
      <point x="472" y="239"/>
      <point x="479" y="322" type="curve" smooth="yes"/>
      <point x="486" y="401"/>
      <point x="434" y="465"/>
      <point x="363" y="465" type="curve" smooth="yes"/>
      <point x="289" y="465"/>
      <point x="257" y="415"/>
      <point x="253" y="368" type="curve" smooth="yes"/>
      <point x="249" y="319"/>
      <point x="279" y="287"/>
      <point x="326" y="287" type="curve" smooth="yes"/>
      <point x="375" y="287"/>
      <point x="416" y="321"/>
      <point x="421" y="377" type="curve" smooth="yes"/>
      <point x="422" y="390"/>
      <point x="421" y="406"/>
      <point x="417" y="423" type="curve"/>
      <point x="403" y="426" type="line"/>
      <point x="392" y="347"/>
      <point x="353" y="335"/>
      <point x="329" y="335" type="curve" smooth="yes"/>
      <point x="310" y="335"/>
      <point x="290" y="343"/>
      <point x="292" y="365" type="curve" smooth="yes"/>
      <point x="294" y="388"/>
      <point x="321" y="415"/>
      <point x="367" y="415" type="curve" smooth="yes"/>
      <point x="417" y="415"/>
      <point x="452" y="386"/>
      <point x="447" y="337" type="curve" smooth="yes"/>
      <point x="441" y="269"/>
      <point x="394" y="239"/>
      <point x="329" y="239" type="curve" smooth="yes"/>
      <point x="214" y="239"/>
      <point x="188" y="322"/>
      <point x="192" y="369" type="curve" smooth="yes"/>
      <point x="193" y="376"/>
      <point x="193" y="383"/>
      <point x="196" y="388" type="curve"/>
      <point x="190" y="396"/>
      <point x="182" y="404"/>
      <point x="175" y="407" type="curve"/>
      <point x="112" y="395"/>
      <point x="40" y="326"/>
      <point x="29" y="199" type="curve" smooth="yes"/>
      <point x="22" y="112"/>
      <point x="53" y="-14"/>
      <point x="176" y="-14" type="curve" smooth="yes"/>
      <point x="254" y="-14"/>
      <point x="291" y="39"/>
      <point x="304" y="78" type="curve"/>
      <point x="304" y="79"/>
      <point x="294" y="78"/>
      <point x="295" y="79" type="curve"/>
      <point x="290" y="38"/>
      <point x="325" y="-15"/>
    </contour>
  </outline>
</glyph>
<glyph name="kha-sinhala" format="1">
  <advance width="653"/>
  <unicode hex="0D9B"/>
  <outline>
    <contour>
      <point x="423" y="-9" type="curve" smooth="yes"/>
      <point x="527" y="-9"/>
      <point x="601" y="99"/>
      <point x="615" y="260" type="curve" smooth="yes"/>
      <point x="634" y="473"/>
      <point x="518" y="599"/>
      <point x="323" y="599" type="curve" smooth="yes"/>
      <point x="258" y="599"/>
      <point x="205" y="585"/>
      <point x="173" y="569" type="curve"/>
      <point x="163" y="554"/>
      <point x="158" y="530"/>
      <point x="157" y="516" type="curve" smooth="yes"/>
      <point x="156" y="505"/>
      <point x="157" y="496"/>
      <point x="158" y="493" type="curve"/>
      <point x="160" y="494"/>
      <point x="229" y="528"/>
      <point x="317" y="528" type="curve" smooth="yes"/>
      <point x="447" y="528"/>
      <point x="589" y="476"/>
      <point x="572" y="279" type="curve" smooth="yes"/>
      <point x="562" y="163"/>
      <point x="499" y="56"/>
      <point x="427" y="56" type="curve" smooth="yes"/>
      <point x="375" y="56"/>
      <point x="352" y="76"/>
      <point x="344" y="90" type="curve"/>
      <point x="320" y="63" type="line"/>
      <point x="332" y="36"/>
      <point x="349" y="-9"/>
    </contour>
    <contour>
      <point x="296" y="-44" type="curve"/>
      <point x="326" y="-9"/>
      <point x="409" y="119"/>
      <point x="418" y="218" type="curve" smooth="yes"/>
      <point x="425" y="300"/>
      <point x="375" y="389"/>
      <point x="270" y="389" type="curve" smooth="yes"/>
      <point x="157" y="389"/>
      <point x="55" y="291"/>
      <point x="44" y="158" type="curve" smooth="yes"/>
      <point x="37" y="78"/>
      <point x="62" y="-14"/>
      <point x="158" y="-14" type="curve" smooth="yes"/>
      <point x="225" y="-14"/>
      <point x="265" y="31"/>
      <point x="270" y="88" type="curve" smooth="yes"/>
      <point x="275" y="142"/>
      <point x="242" y="173"/>
      <point x="195" y="173" type="curve" smooth="yes"/>
      <point x="155" y="173"/>
      <point x="121" y="137"/>
      <point x="117" y="98" type="curve" smooth="yes"/>
      <point x="115" y="74"/>
      <point x="123" y="56"/>
      <point x="131" y="40" type="curve"/>
      <point x="165" y="22" type="line"/>
      <point x="151" y="38"/>
      <point x="149" y="49"/>
      <point x="150" y="63" type="curve" smooth="yes"/>
      <point x="154" y="109"/>
      <point x="185" y="119"/>
      <point x="204" y="119" type="curve" smooth="yes"/>
      <point x="223" y="119"/>
      <point x="242" y="107"/>
      <point x="240" y="84" type="curve" smooth="yes"/>
      <point x="237" y="51"/>
      <point x="198" y="38"/>
      <point x="171" y="38" type="curve" smooth="yes"/>
      <point x="132" y="38"/>
      <point x="74" y="78"/>
      <point x="82" y="177" type="curve" smooth="yes"/>
      <point x="90" y="267"/>
      <point x="168" y="314"/>
      <point x="237" y="314" type="curve" smooth="yes"/>
      <point x="307" y="314"/>
      <point x="377" y="278"/>
      <point x="369" y="191" type="curve" smooth="yes"/>
      <point x="364" y="125"/>
      <point x="304" y="42"/>
      <point x="256" y="-14" type="curve"/>
      <point x="264" y="-29"/>
      <point x="285" y="-43"/>
    </contour>
  </outline>
</glyph>
<glyph name="ga-sinhala" format="1">
  <advance width="758"/>
  <unicode hex="0D9C"/>
  <outline>
    <contour>
      <point x="618" y="-3"/>
      <point x="704" y="117"/>
      <point x="715" y="248" type="curve" smooth="yes"/>
      <point x="726" y="371"/>
      <point x="648" y="454"/>
      <point x="539" y="454" type="curve" smooth="yes"/>
      <point x="398" y="454"/>
      <point x="303" y="333"/>
      <point x="283" y="170" type="curve"/>
      <point x="288" y="169"/>
      <point x="292" y="169"/>
      <point x="297" y="169" type="curve" smooth="yes"/>
      <point x="304" y="169"/>
      <point x="311" y="169"/>
      <point x="319" y="170" type="curve"/>
      <point x="318" y="177"/>
      <point x="318" y="190"/>
      <point x="319" y="197" type="curve" smooth="yes"/>
      <point x="328" y="305"/>
      <point x="395" y="366"/>
      <point x="511" y="366" type="curve" smooth="yes"/>
      <point x="589" y="366"/>
      <point x="679" y="323"/>
      <point x="671" y="226" type="curve" smooth="yes"/>
      <point x="663" y="132"/>
      <point x="599" y="76"/>
      <point x="500" y="76" type="curve" smooth="yes"/>
      <point x="484" y="76"/>
      <point x="462" y="78"/>
      <point x="446" y="82" type="curve"/>
      <point x="435" y="76" type="line"/>
      <point x="434" y="59"/>
      <point x="449" y="11"/>
      <point x="467" y="-6" type="curve"/>
    </contour>
    <contour>
      <point x="352" y="-9"/>
      <point x="426" y="79"/>
      <point x="435" y="173" type="curve" smooth="yes"/>
      <point x="441" y="247"/>
      <point x="395" y="302"/>
      <point x="330" y="301" type="curve"/>
      <point x="321" y="249" type="line"/>
      <point x="351" y="248"/>
      <point x="406" y="230"/>
      <point x="401" y="180" type="curve" smooth="yes"/>
      <point x="395" y="113"/>
      <point x="308" y="80"/>
      <point x="240" y="80" type="curve" smooth="yes"/>
      <point x="143" y="80"/>
      <point x="72" y="130"/>
      <point x="79" y="215" type="curve" smooth="yes"/>
      <point x="87" y="297"/>
      <point x="154" y="356"/>
      <point x="263" y="356" type="curve"/>
      <point x="268" y="363"/>
      <point x="277" y="408"/>
      <point x="279" y="432" type="curve" smooth="yes"/>
      <point x="280" y="438"/>
      <point x="280" y="444"/>
      <point x="280" y="447" type="curve"/>
      <point x="174" y="446"/>
      <point x="56" y="357"/>
      <point x="42" y="194" type="curve" smooth="yes"/>
      <point x="31" y="71"/>
      <point x="104" y="-9"/>
      <point x="228" y="-9" type="curve" smooth="yes"/>
    </contour>
  </outline>
</glyph>
<glyph name="ca-sinhala" format="1">
  <advance width="657"/>
  <unicode hex="0DA0"/>
  <outline>
    <contour>
      <point x="492" y="-23"/>
      <point x="593" y="131"/>
      <point x="607" y="293" type="curve" smooth="yes"/>
      <point x="625" y="491"/>
      <point x="502" y="601"/>
      <point x="346" y="601" type="curve" smooth="yes"/>
      <point x="284" y="601"/>
      <point x="221" y="584"/>
      <point x="183" y="566" type="curve"/>
      <point x="174" y="549"/>
      <point x="170" y="523"/>
      <point x="170" y="515" type="curve" smooth="yes"/>
      <point x="169" y="507"/>
      <point x="169" y="499"/>
      <point x="170" y="496" type="curve"/>
      <point x="173" y="496"/>
      <point x="255" y="529"/>
      <point x="333" y="529" type="curve" smooth="yes"/>
      <point x="441" y="529"/>
      <point x="581" y="472"/>
      <point x="565" y="294" type="curve" smooth="yes"/>
      <point x="555" y="178"/>
      <point x="473" y="65"/>
      <point x="298" y="65" type="curve" smooth="yes"/>
      <point x="211" y="65"/>
      <point x="120" y="91"/>
      <point x="125" y="151" type="curve" smooth="yes"/>
      <point x="129" y="201"/>
      <point x="197" y="226"/>
      <point x="270" y="226" type="curve" smooth="yes"/>
      <point x="290" y="226"/>
      <point x="310" y="224"/>
      <point x="330" y="221" type="curve"/>
      <point x="347" y="233" type="line"/>
      <point x="350" y="245"/>
      <point x="353" y="257"/>
      <point x="354" y="271" type="curve" smooth="yes"/>
      <point x="360" y="340"/>
      <point x="320" y="420"/>
      <point x="227" y="420" type="curve" smooth="yes"/>
      <point x="168" y="420"/>
      <point x="131" y="387"/>
      <point x="127" y="350" type="curve" smooth="yes"/>
      <point x="125" y="325"/>
      <point x="141" y="309"/>
      <point x="171" y="309" type="curve" smooth="yes"/>
      <point x="175" y="309"/>
      <point x="178" y="309"/>
      <point x="182" y="310" type="curve"/>
      <point x="184" y="318"/>
      <point x="206" y="362"/>
      <point x="254" y="362" type="curve" smooth="yes"/>
      <point x="292" y="362"/>
      <point x="324" y="336"/>
      <point x="318" y="285" type="curve"/>
      <point x="311" y="283"/>
      <point x="300" y="283"/>
      <point x="294" y="283" type="curve" smooth="yes"/>
      <point x="280" y="283"/>
      <point x="92" y="260"/>
      <point x="81" y="126" type="curve" smooth="yes"/>
      <point x="73" y="33"/>
      <point x="173" y="-23"/>
      <point x="293" y="-23" type="curve" smooth="yes"/>
    </contour>
    <contour>
      <point x="72" y="219"/>
      <point x="173" y="264"/>
      <point x="311" y="271" type="curve"/>
      <point x="319" y="286" type="line"/>
      <point x="232" y="286"/>
      <point x="99" y="279"/>
      <point x="37" y="267" type="curve"/>
      <point x="29" y="253"/>
      <point x="20" y="224"/>
      <point x="18" y="202" type="curve"/>
      <point x="28" y="194" type="line"/>
    </contour>
  </outline>
</glyph>
<glyph name="nya-sinhala" format="1">
  <advance width="1037"/>
  <unicode hex="0DA4"/>
  <outline>
    <contour>
      <point x="335" y="-6" type="curve" smooth="yes"/>
      <point x="378" y="-6"/>
      <point x="416" y="21"/>
      <point x="434" y="62" type="curve"/>
      <point x="443" y="18"/>
      <point x="475" y="-6"/>
      <point x="520" y="-6" type="curve" smooth="yes"/>
      <point x="611" y="-6"/>
      <point x="659" y="95"/>
      <point x="666" y="168" type="curve" smooth="yes"/>
      <point x="673" y="255"/>
      <point x="634" y="319"/>
      <point x="557" y="319" type="curve" smooth="yes"/>
      <point x="470" y="319"/>
      <point x="365" y="253"/>
      <point x="327" y="215" type="curve"/>
      <point x="360" y="239" type="line"/>
      <point x="364" y="248"/>
      <point x="413" y="282"/>
      <point x="428" y="293" type="curve"/>
      <point x="468" y="320"/>
      <point x="592" y="385"/>
      <point x="672" y="385" type="curve" smooth="yes"/>
      <point x="697" y="385"/>
      <point x="717" y="379"/>
      <point x="730" y="363" type="curve"/>
      <point x="750" y="380"/>
      <point x="843" y="435"/>
      <point x="872" y="457" type="curve"/>
      <point x="844" y="461"/>
      <point x="817" y="463"/>
      <point x="791" y="463" type="curve" smooth="yes"/>
      <point x="622" y="463"/>
      <point x="492" y="379"/>
      <point x="404" y="314" type="curve" smooth="yes"/>
      <point x="247" y="197"/>
      <point x="169" y="115"/>
      <point x="149" y="96" type="curve"/>
      <point x="146" y="92"/>
      <point x="145" y="89"/>
      <point x="144" y="85" type="curve" smooth="yes"/>
      <point x="143" y="71"/>
      <point x="164" y="62"/>
      <point x="168" y="61" type="curve"/>
      <point x="177" y="96"/>
      <point x="281" y="173"/>
      <point x="322" y="197" type="curve" smooth="yes"/>
      <point x="377" y="229"/>
      <point x="451" y="252"/>
      <point x="512" y="252" type="curve" smooth="yes"/>
      <point x="585" y="252"/>
      <point x="638" y="222"/>
      <point x="633" y="158" type="curve" smooth="yes"/>
      <point x="628" y="105"/>
      <point x="576" y="79"/>
      <point x="528" y="79" type="curve" smooth="yes"/>
      <point x="484" y="79"/>
      <point x="460" y="117"/>
      <point x="465" y="168" type="curve" smooth="yes"/>
      <point x="465" y="173"/>
      <point x="466" y="178"/>
      <point x="467" y="183" type="curve"/>
      <point x="448" y="179" type="line"/>
      <point x="428" y="116"/>
      <point x="379" y="77"/>
      <point x="330" y="77" type="curve" smooth="yes"/>
      <point x="278" y="77"/>
      <point x="271" y="121"/>
      <point x="228" y="121" type="curve" smooth="yes"/>
      <point x="221" y="121"/>
      <point x="213" y="120"/>
      <point x="204" y="117" type="curve"/>
      <point x="182" y="89" type="line"/>
      <point x="187" y="94"/>
      <point x="193" y="96"/>
      <point x="200" y="96" type="curve" smooth="yes"/>
      <point x="212" y="96"/>
      <point x="225" y="89"/>
      <point x="231" y="79" type="curve" smooth="yes"/>
      <point x="256" y="38"/>
      <point x="277" y="-6"/>
    </contour>
    <contour>
      <point x="97" y="-10" type="curve"/>
      <point x="116" y="-10"/>
      <point x="127" y="-6"/>
      <point x="132" y="-3" type="curve"/>
      <point x="119" y="24"/>
      <point x="101" y="89"/>
      <point x="107" y="164" type="curve" smooth="yes"/>
      <point x="117" y="279"/>
      <point x="209" y="410"/>
      <point x="310" y="400" type="curve"/>
      <point x="396" y="449" type="line"/>
      <point x="382" y="451"/>
      <point x="368" y="452"/>
      <point x="353" y="452" type="curve" smooth="yes"/>
      <point x="217" y="452"/>
      <point x="63" y="351"/>
      <point x="48" y="185" type="curve" smooth="yes"/>
      <point x="41" y="98"/>
      <point x="74" y="21"/>
    </contour>
    <contour>
      <point x="262" y="278" type="curve" smooth="yes"/>
      <point x="275" y="278"/>
      <point x="291" y="280"/>
      <point x="304" y="286" type="curve"/>
      <point x="295" y="299"/>
      <point x="288" y="311"/>
      <point x="290" y="333" type="curve" smooth="yes"/>
      <point x="295" y="386"/>
      <point x="327" y="422"/>
      <point x="363" y="422" type="curve" smooth="yes"/>
      <point x="399" y="422"/>
      <point x="411" y="393"/>
      <point x="406" y="360" type="curve"/>
      <point x="404" y="329"/>
      <point x="390" y="306"/>
      <point x="373" y="290" type="curve"/>
      <point x="397" y="298" type="line"/>
      <point x="414" y="314"/>
      <point x="454" y="356"/>
      <point x="458" y="396" type="curve" smooth="yes"/>
      <point x="461" y="435"/>
      <point x="417" y="450"/>
      <point x="384" y="450" type="curve" smooth="yes"/>
      <point x="303" y="450"/>
      <point x="225" y="395"/>
      <point x="219" y="324" type="curve" smooth="yes"/>
      <point x="217" y="294"/>
      <point x="230" y="278"/>
    </contour>
    <contour>
      <point x="839" y="-233" type="curve" smooth="yes"/>
      <point x="850" y="-233"/>
      <point x="861" y="-232"/>
      <point x="873" y="-231" type="curve"/>
      <point x="897" y="-219"/>
      <point x="935" y="-179"/>
      <point x="941" y="-138" type="curve"/>
      <point x="905" y="-148"/>
      <point x="876" y="-153"/>
      <point x="854" y="-153" type="curve" smooth="yes"/>
      <point x="796" y="-153"/>
      <point x="781" y="-123"/>
      <point x="784" y="-96" type="curve" smooth="yes"/>
      <point x="789" y="-29"/>
      <point x="884" y="7"/>
      <point x="921" y="20" type="curve"/>
      <point x="917" y="22"/>
      <point x="915" y="33"/>
      <point x="911" y="35" type="curve"/>
      <point x="904" y="36"/>
      <point x="898" y="30"/>
      <point x="891" y="30" type="curve" smooth="yes"/>
      <point x="889" y="30" type="line"/>
      <point x="834" y="7"/>
      <point x="727" y="-39"/>
      <point x="719" y="-130" type="curve" smooth="yes"/>
      <point x="714" y="-178"/>
      <point x="738" y="-233"/>
    </contour>
    <contour>
      <point x="806" y="-5" type="curve" smooth="yes"/>
      <point x="879" y="-5"/>
      <point x="930" y="23"/>
      <point x="964" y="38" type="curve"/>
      <point x="973" y="55"/>
      <point x="981" y="83"/>
      <point x="984" y="112" type="curve"/>
      <point x="977" y="122" type="line"/>
      <point x="928" y="89"/>
      <point x="872" y="68"/>
      <point x="810" y="68" type="curve" smooth="yes"/>
      <point x="711" y="68"/>
      <point x="674" y="102"/>
      <point x="678" y="153" type="curve" smooth="yes"/>
      <point x="683" y="205"/>
      <point x="734" y="259"/>
      <point x="870" y="259" type="curve" smooth="yes"/>
      <point x="891" y="259"/>
      <point x="939" y="256"/>
      <point x="965" y="253" type="curve"/>
      <point x="981" y="266" type="line"/>
      <point x="993" y="351"/>
      <point x="950" y="461"/>
      <point x="838" y="461" type="curve" smooth="yes"/>
      <point x="764" y="461"/>
      <point x="708" y="423"/>
      <point x="703" y="370" type="curve" smooth="yes"/>
      <point x="701" y="340"/>
      <point x="721" y="325"/>
      <point x="754" y="325" type="curve" smooth="yes"/>
      <point x="763" y="325"/>
      <point x="774" y="326"/>
      <point x="786" y="329" type="curve"/>
      <point x="785" y="336"/>
      <point x="785" y="342"/>
      <point x="785" y="348" type="curve" smooth="yes"/>
      <point x="789" y="389"/>
      <point x="826" y="411"/>
      <point x="861" y="411" type="curve" smooth="yes"/>
      <point x="911" y="411"/>
      <point x="926" y="365"/>
      <point x="925" y="315" type="curve"/>
      <point x="914" y="317"/>
      <point x="903" y="319"/>
      <point x="878" y="319" type="curve" smooth="yes"/>
      <point x="728" y="319"/>
      <point x="668" y="247"/>
      <point x="632" y="151" type="curve"/>
      <point x="645" y="62"/>
      <point x="690" y="-5"/>
    </contour>
  </outline>
</glyph>
<glyph name="ttha-sinhala" format="1">
  <advance width="650"/>
  <unicode hex="0DA8"/>
  <outline>
    <contour>
      <point x="511" y="-18"/>
      <point x="584" y="118"/>
      <point x="595" y="250" type="curve" smooth="yes"/>
      <point x="618" y="512"/>
      <point x="407" y="631"/>
      <point x="248" y="631" type="curve"/>
      <point x="231" y="562" type="line"/>
      <point x="392" y="562"/>
      <point x="567" y="437"/>
      <point x="552" y="262" type="curve" smooth="yes"/>
      <point x="543" y="158"/>
      <point x="483" y="81"/>
      <point x="395" y="79" type="curve" smooth="yes"/>
      <point x="349" y="79"/>
      <point x="311" y="107"/>
      <point x="315" y="160" type="curve" smooth="yes"/>
      <point x="316" y="165"/>
      <point x="316" y="170"/>
      <point x="318" y="176" type="curve"/>
      <point x="297" y="171" type="line"/>
      <point x="275" y="113"/>
      <point x="229" y="77"/>
      <point x="168" y="77" type="curve" smooth="yes"/>
      <point x="111" y="77"/>
      <point x="65" y="106"/>
      <point x="71" y="170" type="curve" smooth="yes"/>
      <point x="77" y="242"/>
      <point x="152" y="276"/>
      <point x="237" y="276" type="curve" smooth="yes"/>
      <point x="258" y="276"/>
      <point x="279" y="274"/>
      <point x="301" y="270" type="curve"/>
      <point x="312" y="282" type="line"/>
      <point x="311" y="306"/>
      <point x="300" y="342"/>
      <point x="291" y="352" type="curve"/>
      <point x="197" y="357"/>
      <point x="43" y="295"/>
      <point x="30" y="152" type="curve" smooth="yes"/>
      <point x="23" y="63"/>
      <point x="67" y="-15"/>
      <point x="156" y="-15" type="curve" smooth="yes"/>
      <point x="235" y="-15"/>
      <point x="291" y="56"/>
      <point x="299" y="102" type="curve"/>
      <point x="300" y="102"/>
      <point x="281" y="106"/>
      <point x="283" y="108" type="curve"/>
      <point x="280" y="69"/>
      <point x="292" y="-18"/>
      <point x="391" y="-18" type="curve" smooth="yes"/>
    </contour>
    <contour>
      <point x="403" y="413"/>
      <point x="470" y="430"/>
      <point x="495" y="448" type="curve"/>
      <point x="483" y="473" type="line"/>
      <point x="462" y="465"/>
      <point x="432" y="458"/>
      <point x="397" y="458" type="curve" smooth="yes"/>
      <point x="267" y="458"/>
      <point x="248" y="520"/>
      <point x="248" y="631" type="curve"/>
      <point x="217" y="614" type="line"/>
      <point x="212" y="594"/>
      <point x="208" y="575"/>
      <point x="207" y="558" type="curve" smooth="yes"/>
      <point x="200" y="473"/>
      <point x="235" y="413"/>
      <point x="350" y="413" type="curve" smooth="yes"/>
    </contour>
  </outline>
</glyph>
<glyph name="nna-sinhala" format="1">
  <advance width="907"/>
  <unicode hex="0DAB"/>
  <outline>
    <contour>
      <point x="279" y="-11" type="curve" smooth="yes"/>
      <point x="440" y="-11"/>
      <point x="500" y="157"/>
      <point x="507" y="243" type="curve" smooth="yes"/>
      <point x="517" y="356"/>
      <point x="451" y="435"/>
      <point x="357" y="435" type="curve" smooth="yes"/>
      <point x="308" y="435"/>
      <point x="278" y="413"/>
      <point x="261" y="397" type="curve"/>
      <point x="206" y="371"/>
      <point x="163" y="316"/>
      <point x="157" y="255" type="curve" smooth="yes"/>
      <point x="151" y="183"/>
      <point x="187" y="122"/>
      <point x="268" y="122" type="curve" smooth="yes"/>
      <point x="330" y="122"/>
      <point x="374" y="163"/>
      <point x="379" y="219" type="curve" smooth="yes"/>
      <point x="384" y="272"/>
      <point x="351" y="315"/>
      <point x="285" y="315" type="curve" smooth="yes"/>
      <point x="254" y="315"/>
      <point x="221" y="306"/>
      <point x="181" y="271" type="curve"/>
      <point x="170" y="236" type="line"/>
      <point x="198" y="262"/>
      <point x="226" y="272"/>
      <point x="249" y="272" type="curve" smooth="yes"/>
      <point x="295" y="272"/>
      <point x="320" y="246"/>
      <point x="317" y="211" type="curve" smooth="yes"/>
      <point x="314" y="182"/>
      <point x="287" y="163"/>
      <point x="263" y="163" type="curve" smooth="yes"/>
      <point x="233" y="163"/>
      <point x="187" y="181"/>
      <point x="193" y="254" type="curve" smooth="yes"/>
      <point x="198" y="313"/>
      <point x="235" y="377"/>
      <point x="325" y="377" type="curve" smooth="yes"/>
      <point x="408" y="377"/>
      <point x="480" y="322"/>
      <point x="472" y="233" type="curve" smooth="yes"/>
      <point x="465" y="145"/>
      <point x="389" y="70"/>
      <point x="256" y="70" type="curve" smooth="yes"/>
      <point x="137" y="70"/>
      <point x="113" y="147"/>
      <point x="45" y="147" type="curve" smooth="yes"/>
      <point x="34" y="147"/>
      <point x="22" y="145"/>
      <point x="7" y="140" type="curve"/>
      <point x="46" y="125" type="line"/>
      <point x="151" y="250"/>
      <point x="314" y="476"/>
      <point x="497" y="586" type="curve"/>
      <point x="496" y="604"/>
      <point x="477" y="636"/>
      <point x="458" y="641" type="curve"/>
      <point x="269" y="489"/>
      <point x="161" y="308"/>
      <point x="24" y="147" type="curve"/>
      <point x="3" y="145"/>
      <point x="-17" y="131"/>
      <point x="-19" y="108" type="curve" smooth="yes"/>
      <point x="-20" y="98"/>
      <point x="-17" y="90"/>
      <point x="-15" y="87" type="curve"/>
      <point x="-8" y="86"/>
      <point x="7" y="87"/>
      <point x="18" y="91" type="curve"/>
      <point x="18" y="96"/>
      <point x="18" y="108"/>
      <point x="42" y="108" type="curve" smooth="yes"/>
      <point x="124" y="108"/>
      <point x="122" y="-11"/>
    </contour>
    <contour>
      <point x="647" y="-26" type="curve" smooth="yes"/>
      <point x="784" y="-26"/>
      <point x="854" y="103"/>
      <point x="866" y="237" type="curve" smooth="yes"/>
      <point x="876" y="350"/>
      <point x="828" y="405"/>
      <point x="762" y="405" type="curve" smooth="yes"/>
      <point x="702" y="405"/>
      <point x="654" y="355"/>
      <point x="633" y="298" type="curve"/>
      <point x="633" y="289" type="line"/>
      <point x="639" y="321"/>
      <point x="629" y="353"/>
      <point x="591" y="353" type="curve" smooth="yes"/>
      <point x="543" y="353"/>
      <point x="503" y="298"/>
      <point x="496" y="253" type="curve"/>
      <point x="498" y="191" type="line"/>
      <point x="515" y="254"/>
      <point x="530" y="288"/>
      <point x="565" y="288" type="curve" smooth="yes"/>
      <point x="590" y="288"/>
      <point x="610" y="259"/>
      <point x="602" y="203" type="curve"/>
      <point x="608" y="202"/>
      <point x="624" y="202"/>
      <point x="633" y="205" type="curve"/>
      <point x="639" y="239"/>
      <point x="681" y="320"/>
      <point x="750" y="320" type="curve" smooth="yes"/>
      <point x="787" y="320"/>
      <point x="838" y="296"/>
      <point x="831" y="214" type="curve" smooth="yes"/>
      <point x="823" y="123"/>
      <point x="763" y="51"/>
      <point x="657" y="51" type="curve" smooth="yes"/>
      <point x="614" y="51"/>
      <point x="577" y="63"/>
      <point x="546" y="79" type="curve"/>
      <point x="535" y="73"/>
      <point x="524" y="61"/>
      <point x="522" y="51" type="curve"/>
      <point x="525" y="21"/>
      <point x="564" y="-26"/>
    </contour>
    <contour>
      <point x="813" y="371" type="move" name="Virama"/>
    </contour>
  </outline>
</glyph>
<glyph name="nndda-sinhala" format="1">
  <advance width="789"/>
  <unicode hex="0DAC"/>
  <outline>
    <contour>
      <point x="67" y="-6" type="curve"/>
      <point x="86" y="-6"/>
      <point x="96" y="-2"/>
      <point x="102" y="1" type="curve"/>
      <point x="86" y="27"/>
      <point x="65" y="81"/>
      <point x="73" y="176" type="curve" smooth="yes"/>
      <point x="81" y="270"/>
      <point x="109" y="368"/>
      <point x="226" y="368" type="curve" smooth="yes"/>
      <point x="237" y="368"/>
      <point x="248" y="368"/>
      <point x="260" y="366" type="curve"/>
      <point x="266" y="377" type="line"/>
      <point x="355" y="391" type="line"/>
      <point x="354" y="420" type="line"/>
      <point x="342" y="424"/>
      <point x="329" y="424"/>
      <point x="319" y="425" type="curve" smooth="yes"/>
      <point x="306" y="426"/>
      <point x="294" y="427"/>
      <point x="282" y="427" type="curve" smooth="yes"/>
      <point x="133" y="427"/>
      <point x="33" y="331"/>
      <point x="20" y="176" type="curve" smooth="yes"/>
      <point x="12" y="88"/>
      <point x="44" y="27"/>
    </contour>
    <component base="dda-sinhala" yxScale="0.087" xOffset="62"/>
  </outline>
</glyph>
<glyph name="dha-sinhala" format="1">
  <advance width="628"/>
  <unicode hex="0DB0"/>
  <outline>
    <contour>
      <point x="386" y="-16" type="curve" smooth="yes"/>
      <point x="498" y="-16"/>
      <point x="563" y="116"/>
      <point x="575" y="257" type="curve" smooth="yes"/>
      <point x="593" y="459"/>
      <point x="487" y="597"/>
      <point x="275" y="597" type="curve" smooth="yes"/>
      <point x="225" y="597"/>
      <point x="170" y="587"/>
      <point x="139" y="574" type="curve"/>
      <point x="128" y="559"/>
      <point x="122" y="537"/>
      <point x="120" y="519" type="curve" smooth="yes"/>
      <point x="119" y="511"/>
      <point x="120" y="504"/>
      <point x="121" y="499" type="curve"/>
      <point x="142" y="509"/>
      <point x="197" y="525"/>
      <point x="264" y="525" type="curve" smooth="yes"/>
      <point x="407" y="525"/>
      <point x="548" y="473"/>
      <point x="531" y="274" type="curve" smooth="yes"/>
      <point x="520" y="151"/>
      <point x="464" y="65"/>
      <point x="384" y="65" type="curve" smooth="yes"/>
      <point x="352" y="65"/>
      <point x="302" y="79"/>
      <point x="309" y="149" type="curve"/>
      <point x="310" y="158" type="line"/>
      <point x="291" y="154" type="line"/>
      <point x="269" y="108"/>
      <point x="237" y="69"/>
      <point x="168" y="69" type="curve" smooth="yes"/>
      <point x="97" y="69"/>
      <point x="52" y="111"/>
      <point x="58" y="172" type="curve" smooth="yes"/>
      <point x="64" y="242"/>
      <point x="133" y="291"/>
      <point x="231" y="291" type="curve" smooth="yes"/>
      <point x="255" y="291"/>
      <point x="281" y="288"/>
      <point x="307" y="282" type="curve"/>
      <point x="319" y="295" type="line"/>
      <point x="319" y="317"/>
      <point x="314" y="343"/>
      <point x="305" y="362" type="curve"/>
      <point x="294" y="363"/>
      <point x="282" y="364"/>
      <point x="269" y="364" type="curve" smooth="yes"/>
      <point x="150" y="364"/>
      <point x="30" y="289"/>
      <point x="18" y="152" type="curve" smooth="yes"/>
      <point x="9" y="50"/>
      <point x="67" y="-15"/>
      <point x="155" y="-15" type="curve" smooth="yes"/>
      <point x="241" y="-15"/>
      <point x="283" y="48"/>
      <point x="291" y="83" type="curve"/>
      <point x="285" y="105" type="line"/>
      <point x="283" y="99"/>
      <point x="282" y="93"/>
      <point x="281" y="85" type="curve" smooth="yes"/>
      <point x="276" y="29"/>
      <point x="321" y="-16"/>
    </contour>
  </outline>
</glyph>
<glyph name="pha-sinhala" format="1">
  <advance width="625"/>
  <unicode hex="0DB5"/>
  <outline>
    <contour>
      <point x="593" y="513"/>
      <point x="437" y="630"/>
      <point x="276" y="630" type="curve"/>
      <point x="245" y="566" type="line"/>
      <point x="389" y="566"/>
      <point x="543" y="465"/>
      <point x="528" y="298" type="curve" smooth="yes"/>
      <point x="516" y="157"/>
      <point x="416" y="75"/>
      <point x="264" y="75" type="curve" smooth="yes"/>
      <point x="149" y="75"/>
      <point x="70" y="106"/>
      <point x="75" y="163" type="curve" smooth="yes"/>
      <point x="80" y="220"/>
      <point x="151" y="240"/>
      <point x="233" y="240" type="curve" smooth="yes"/>
      <point x="253" y="240"/>
      <point x="274" y="239"/>
      <point x="293" y="236" type="curve"/>
      <point x="310" y="248" type="line"/>
      <point x="314" y="260"/>
      <point x="316" y="271"/>
      <point x="317" y="285" type="curve" smooth="yes"/>
      <point x="323" y="354"/>
      <point x="287" y="434"/>
      <point x="186" y="434" type="curve" smooth="yes"/>
      <point x="140" y="434"/>
      <point x="94" y="408"/>
      <point x="90" y="363" type="curve" smooth="yes"/>
      <point x="88" y="337"/>
      <point x="107" y="320"/>
      <point x="144" y="324" type="curve"/>
      <point x="146" y="333"/>
      <point x="169" y="377"/>
      <point x="217" y="377" type="curve" smooth="yes"/>
      <point x="255" y="377"/>
      <point x="287" y="350"/>
      <point x="279" y="300" type="curve"/>
      <point x="257" y="300" type="line" smooth="yes"/>
      <point x="174" y="300"/>
      <point x="46" y="261"/>
      <point x="36" y="146" type="curve" smooth="yes"/>
      <point x="28" y="53"/>
      <point x="111" y="-14"/>
      <point x="253" y="-14" type="curve" smooth="yes"/>
      <point x="429" y="-14"/>
      <point x="558" y="111"/>
      <point x="574" y="298" type="curve" smooth="yes"/>
    </contour>
    <contour>
      <point x="516" y="476" type="line"/>
      <point x="494" y="467"/>
      <point x="460" y="461"/>
      <point x="424" y="461" type="curve" smooth="yes"/>
      <point x="307" y="461"/>
      <point x="266" y="516"/>
      <point x="276" y="630" type="curve"/>
      <point x="244" y="614" type="line"/>
      <point x="241" y="605"/>
      <point x="236" y="584"/>
      <point x="234" y="565" type="curve" smooth="yes"/>
      <point x="226" y="469"/>
      <point x="275" y="417"/>
      <point x="380" y="417" type="curve" smooth="yes"/>
      <point x="437" y="417"/>
      <point x="496" y="434"/>
      <point x="522" y="455" type="curve"/>
    </contour>
  </outline>
</glyph>
<glyph name="ma-sinhala" format="1">
  <advance width="656"/>
  <unicode hex="0DB8"/>
  <outline>
    <contour>
      <point x="294" y="-25" type="curve" smooth="yes"/>
      <point x="493" y="-25"/>
      <point x="602" y="129"/>
      <point x="616" y="286" type="curve" smooth="yes"/>
      <point x="632" y="475"/>
      <point x="514" y="602"/>
      <point x="331" y="602" type="curve" smooth="yes"/>
      <point x="261" y="602"/>
      <point x="201" y="586"/>
      <point x="172" y="571" type="curve"/>
      <point x="166" y="561"/>
      <point x="160" y="538"/>
      <point x="158" y="519" type="curve" smooth="yes"/>
      <point x="158" y="512"/>
      <point x="158" y="506"/>
      <point x="159" y="501" type="curve"/>
      <point x="231" y="531"/>
      <point x="291" y="534"/>
      <point x="321" y="534" type="curve" smooth="yes"/>
      <point x="477" y="534"/>
      <point x="588" y="457"/>
      <point x="574" y="305" type="curve" smooth="yes"/>
      <point x="564" y="180"/>
      <point x="465" y="61"/>
      <point x="289" y="61" type="curve" smooth="yes"/>
      <point x="168" y="61"/>
      <point x="68" y="126"/>
      <point x="77" y="227" type="curve" smooth="yes"/>
      <point x="84" y="312"/>
      <point x="134" y="333"/>
      <point x="163" y="338" type="curve"/>
      <point x="157" y="366" type="line"/>
      <point x="155" y="346"/>
      <point x="136" y="146"/>
      <point x="307" y="146" type="curve" smooth="yes"/>
      <point x="411" y="146"/>
      <point x="469" y="225"/>
      <point x="476" y="302" type="curve" smooth="yes"/>
      <point x="484" y="386"/>
      <point x="431" y="455"/>
      <point x="362" y="455" type="curve" smooth="yes"/>
      <point x="288" y="455"/>
      <point x="255" y="401"/>
      <point x="251" y="357" type="curve" smooth="yes"/>
      <point x="247" y="308"/>
      <point x="272" y="277"/>
      <point x="319" y="277" type="curve" smooth="yes"/>
      <point x="368" y="277"/>
      <point x="409" y="311"/>
      <point x="414" y="367" type="curve" smooth="yes"/>
      <point x="415" y="380"/>
      <point x="414" y="396"/>
      <point x="410" y="413" type="curve"/>
      <point x="396" y="416" type="line"/>
      <point x="385" y="337"/>
      <point x="346" y="325"/>
      <point x="322" y="325" type="curve" smooth="yes"/>
      <point x="303" y="325"/>
      <point x="280" y="333"/>
      <point x="282" y="357" type="curve" smooth="yes"/>
      <point x="284" y="382"/>
      <point x="314" y="405"/>
      <point x="360" y="405" type="curve" smooth="yes"/>
      <point x="410" y="405"/>
      <point x="447" y="372"/>
      <point x="442" y="314" type="curve" smooth="yes"/>
      <point x="437" y="256"/>
      <point x="387" y="210"/>
      <point x="312" y="210" type="curve" smooth="yes"/>
      <point x="206" y="210"/>
      <point x="183" y="314"/>
      <point x="188" y="367" type="curve" smooth="yes"/>
      <point x="189" y="375"/>
      <point x="189" y="383"/>
      <point x="192" y="388" type="curve"/>
      <point x="186" y="397"/>
      <point x="178" y="405"/>
      <point x="171" y="407" type="curve"/>
      <point x="107" y="388"/>
      <point x="48" y="325"/>
      <point x="40" y="230" type="curve" smooth="yes"/>
      <point x="27" y="85"/>
      <point x="118" y="-25"/>
    </contour>
  </outline>
</glyph>
<glyph name="ya-sinhala" format="1">
  <advance width="664"/>
  <unicode hex="0DBA"/>
  <outline>
    <contour>
      <point x="546" y="-22"/>
      <point x="615" y="58"/>
      <point x="625" y="162" type="curve" smooth="yes"/>
      <point x="632" y="245"/>
      <point x="586" y="316"/>
      <point x="483" y="316" type="curve" smooth="yes"/>
      <point x="450" y="316"/>
      <point x="423" y="312"/>
      <point x="391" y="301" type="curve"/>
      <point x="439" y="278" type="line"/>
      <point x="431" y="291"/>
      <point x="420" y="316"/>
      <point x="423" y="348" type="curve" smooth="yes"/>
      <point x="427" y="393"/>
      <point x="468" y="412"/>
      <point x="499" y="412" type="curve" smooth="yes"/>
      <point x="540" y="412"/>
      <point x="572" y="392"/>
      <point x="568" y="348" type="curve" smooth="yes"/>
      <point x="565" y="315"/>
      <point x="544" y="288"/>
      <point x="539" y="282" type="curve"/>
      <point x="560" y="276" type="line"/>
      <point x="586" y="288"/>
      <point x="622" y="319"/>
      <point x="626" y="372" type="curve" smooth="yes"/>
      <point x="630" y="415"/>
      <point x="601" y="462"/>
      <point x="529" y="462" type="curve" smooth="yes"/>
      <point x="457" y="462"/>
      <point x="384" y="413"/>
      <point x="374" y="299" type="curve" smooth="yes"/>
      <point x="372" y="282"/>
      <point x="373" y="265"/>
      <point x="375" y="250" type="curve"/>
      <point x="385" y="241" type="line"/>
      <point x="417" y="253"/>
      <point x="449" y="257"/>
      <point x="481" y="257" type="curve" smooth="yes"/>
      <point x="536" y="257"/>
      <point x="595" y="228"/>
      <point x="590" y="173" type="curve" smooth="yes"/>
      <point x="585" y="113"/>
      <point x="534" y="59"/>
      <point x="451" y="59" type="curve" smooth="yes"/>
      <point x="373" y="59"/>
      <point x="336" y="106"/>
      <point x="340" y="152" type="curve" smooth="yes"/>
      <point x="341" y="160"/>
      <point x="342" y="168"/>
      <point x="344" y="173" type="curve"/>
      <point x="323" y="169" type="line"/>
      <point x="297" y="97"/>
      <point x="248" y="65"/>
      <point x="176" y="65" type="curve" smooth="yes"/>
      <point x="116" y="65"/>
      <point x="55" y="97"/>
      <point x="62" y="172" type="curve" smooth="yes"/>
      <point x="69" y="255"/>
      <point x="162" y="309"/>
      <point x="288" y="306" type="curve"/>
      <point x="299" y="317" type="line"/>
      <point x="301" y="340"/>
      <point x="298" y="366"/>
      <point x="289" y="380" type="curve"/>
      <point x="119" y="373"/>
      <point x="35" y="279"/>
      <point x="25" y="162" type="curve" smooth="yes"/>
      <point x="14" y="35"/>
      <point x="92" y="-19"/>
      <point x="167" y="-19" type="curve" smooth="yes"/>
      <point x="275" y="-19"/>
      <point x="315" y="61"/>
      <point x="334" y="103" type="curve"/>
      <point x="336" y="105"/>
      <point x="311" y="108"/>
      <point x="312" y="109" type="curve"/>
      <point x="310" y="101"/>
      <point x="315" y="97"/>
      <point x="314" y="87" type="curve" smooth="yes"/>
      <point x="310" y="34"/>
      <point x="355" y="-22"/>
      <point x="437" y="-22" type="curve" smooth="yes"/>
    </contour>
  </outline>
</glyph>
<glyph name="ra-sinhala" format="1">
  <advance width="528"/>
  <unicode hex="0DBB"/>
  <outline>
    <contour>
      <point x="229" y="-29" type="curve" smooth="yes"/>
      <point x="352" y="-29"/>
      <point x="471" y="69"/>
      <point x="484" y="226" type="curve" smooth="yes"/>
      <point x="495" y="344"/>
      <point x="435" y="429"/>
      <point x="322" y="429" type="curve" smooth="yes"/>
      <point x="209" y="429"/>
      <point x="134" y="342"/>
      <point x="109" y="319" type="curve" smooth="yes"/>
      <point x="83" y="295" type="line"/>
      <point x="72" y="270"/>
      <point x="65" y="262"/>
      <point x="64" y="236" type="curve"/>
      <point x="124" y="320"/>
      <point x="223" y="354"/>
      <point x="297" y="354" type="curve" smooth="yes"/>
      <point x="388" y="354"/>
      <point x="453" y="322"/>
      <point x="445" y="230" type="curve" smooth="yes"/>
      <point x="439" y="160"/>
      <point x="356" y="50"/>
      <point x="226" y="50" type="curve" smooth="yes"/>
      <point x="108" y="50"/>
      <point x="53" y="117"/>
      <point x="60" y="197" type="curve" smooth="yes"/>
      <point x="63" y="231"/>
      <point x="73" y="240"/>
      <point x="82" y="259" type="curve"/>
      <point x="82" y="259"/>
      <point x="119" y="328"/>
      <point x="128" y="336" type="curve"/>
      <point x="188" y="405"/>
      <point x="375" y="547"/>
      <point x="439" y="623" type="curve"/>
      <point x="439" y="654"/>
      <point x="411" y="675"/>
      <point x="400" y="676" type="curve"/>
      <point x="266" y="507"/>
      <point x="40" y="380"/>
      <point x="23" y="189" type="curve" smooth="yes"/>
      <point x="15" y="93"/>
      <point x="64" y="-29"/>
    </contour>
  </outline>
</glyph>
<glyph name="won" format="1">
  <advance width="971"/>
  <unicode hex="20A9"/>
  <outline>
    <contour>
      <point x="33" y="233" type="line"/>
      <point x="943" y="233" type="line"/>
      <point x="939" y="252"/>
      <point x="936" y="273"/>
      <point x="932" y="294" type="curve"/>
      <point x="866" y="290"/>
      <point x="677" y="288"/>
      <point x="486" y="288" type="curve" smooth="yes"/>
      <point x="295" y="288"/>
      <point x="103" y="290"/>
      <point x="28" y="294" type="curve"/>
    </contour>
    <contour>
      <point x="33" y="339" type="line"/>
      <point x="943" y="339" type="line"/>
      <point x="939" y="357"/>
      <point x="936" y="378"/>
      <point x="932" y="399" type="curve"/>
      <point x="866" y="395"/>
      <point x="677" y="393"/>
      <point x="486" y="393" type="curve" smooth="yes"/>
      <point x="295" y="393"/>
      <point x="103" y="395"/>
      <point x="28" y="399" type="curve"/>
    </contour>
    <component base="W"/>
  </outline>
</glyph>
<glyph name="fullMoonSymbol" format="1">
  <advance width="462"/>
  <unicode hex="1F315"/>
  <outline>
    <contour>
      <point x="402" y="-55" type="curve" smooth="yes"/>
      <point x="606" y="-55"/>
      <point x="772" y="111"/>
      <point x="772" y="315" type="curve" smooth="yes"/>
      <point x="772" y="519"/>
      <point x="606" y="685"/>
      <point x="402" y="685" type="curve" smooth="yes"/>
      <point x="198" y="685"/>
      <point x="32" y="519"/>
      <point x="32" y="315" type="curve" smooth="yes"/>
      <point x="32" y="111"/>
      <point x="198" y="-55"/>
    </contour>
  </outline>
</glyph>
<glyph name="fullMoonFace" format="1">
  <advance width="462"/>
  <unicode hex="1F31D"/>
  <outline>
    <contour>
      <point x="199" y="249" type="line"/>
      <point x="311" y="249" type="line"/>
      <point x="311" y="462" type="line"/>
      <point x="199" y="462" type="line"/>
    </contour>
  </outline>
</glyph>
